<svg width="56" height="40" viewBox="0 0 56 40" fill="none" xmlns="http://www.w3.org/2000/svg">
<g opacity="0.05">
<path d="M20 20L4 4H36L52 20L36 36H4L20 20Z" fill="url(#paint0_linear)"/>
<path fill-rule="evenodd" clip-rule="evenodd" d="M3.99999 0C2.38215 0 0.923601 0.974569 0.304477 2.46927C-0.314647 3.96396 0.0275757 5.68444 1.17157 6.82843L14.3431 20L1.17157 33.1716C0.0275757 34.3156 -0.314647 36.036 0.304477 37.5307C0.923601 39.0254 2.38215 40 3.99999 40H36C37.0609 40 38.0783 39.5786 38.8284 38.8284L54.8284 22.8284C56.3905 21.2663 56.3905 18.7337 54.8284 17.1716L38.8284 1.17157C38.0783 0.421427 37.0609 0 36 0H3.99999ZM36 36L52 20L36 4H3.99999L36 36ZM17 26C17 25.4477 17.4477 25 18 25H19C20.1046 25 21 25.8954 21 27V31H22C22.5523 31 23 31.4477 23 32C23 32.5523 22.5523 33 22 33H18C17.4477 33 17 32.5523 17 32C17 31.4477 17.4477 31 18 31H19V27H18C17.4477 27 17 26.5523 17 26Z" fill="#1B1B1B"/>
<path d="M19 13V9H21V13H19Z" fill="white"/>
<path fill-rule="evenodd" clip-rule="evenodd" d="M4 4L20 20L36 4H4ZM17 9C17 7.89543 17.8954 7 19 7H21C22.1046 7 23 7.89543 23 9V13C23 14.1046 22.1046 15 21 15H19C17.8954 15 17 14.1046 17 13V9Z" fill="white"/>
<path d="M36 4L20 20L36 36L52 20L36 4Z" fill="black" fill-opacity="0.1"/>
<path d="M29 17C29 16.4477 29.4477 16 30 16H33C34.1046 16 35 16.8954 35 18V19C35 20.1046 34.1046 21 33 21H31V22H34C34.5523 22 35 22.4477 35 23C35 23.5523 34.5523 24 34 24H31C29.8954 24 29 23.1046 29 22V21C29 19.8954 29.8954 19 31 19H33V18H30C29.4477 18 29 17.5523 29 17Z" fill="white"/>
<path fill-rule="evenodd" clip-rule="evenodd" d="M41 18H39L39 22H41V18ZM39 16C37.8954 16 37 16.8954 37 18V22C37 23.1046 37.8954 24 39 24H41C42.1046 24 43 23.1046 43 22V18C43 16.8954 42.1046 16 41 16H39Z" fill="white"/>
<path d="M36 36L20 20H52L36 36Z" fill="url(#paint1_linear)" fill-opacity="0.3" style="mix-blend-mode:overlay"/>
</g>
<defs>
<linearGradient id="paint0_linear" x1="36" y1="4" x2="36" y2="36" gradientUnits="userSpaceOnUse">
<stop stop-color="#00A2FF"/>
<stop offset="1" stop-color="#62CBC4"/>
</linearGradient>
<linearGradient id="paint1_linear" x1="36" y1="20" x2="36" y2="36" gradientUnits="userSpaceOnUse">
<stop/>
<stop offset="1" stop-opacity="0"/>
</linearGradient>
</defs>
</svg>
